<svg width="19" height="18" viewBox="0 0 19 18" fill="none" xmlns="http://www.w3.org/2000/svg">
<path d="M8.69805 0.870992L0.919049 8.64899C0.823049 8.74399 0.775049 8.87099 0.774049 8.99999C0.771049 9.13499 0.823049 9.25999 0.919049 9.35699L8.69805 17.135C8.88805 17.327 9.21005 17.328 9.40605 17.131L10.107 16.432C10.312 16.225 10.306 15.916 10.11 15.721L4.39105 9.99999H18.503C18.774 9.99999 19 9.77299 19 9.49599V8.50399C19 8.21499 18.777 7.99999 18.503 7.99999H4.39505L10.11 2.28499C10.302 2.09399 10.304 1.77199 10.107 1.57399L9.40605 0.874992C9.30405 0.770992 9.17605 0.722992 9.04705 0.722992C8.92005 0.722992 8.79405 0.770992 8.69805 0.870992Z" fill="#78C009"/>
</svg>
