<svg width="22" height="16" viewBox="0 0 22 16" fill="none" xmlns="http://www.w3.org/2000/svg">
<path d="M11 11C12.6568 11 14 9.65685 14 8C14 6.34315 12.6568 5 11 5C9.34312 5 7.99997 6.34315 7.99997 8C7.99997 9.65685 9.34312 11 11 11Z" fill="#78C009"/>
<path d="M21.564 6.97C19.533 3.591 15.513 0.126 11.112 0.000999928C11.094 -7.25267e-08 11.075 0 11.056 0H10.83C10.811 0 10.792 -7.25267e-08 10.773 0.000999928C6.29697 0.128 2.26197 3.728 0.407974 7.019C0.053974 7.646 0.064974 8.415 0.435974 9.031C2.46697 12.41 6.48597 15.875 10.886 16H11.226C15.843 15.868 19.681 12.164 21.565 9.031C21.945 8.397 21.945 7.604 21.564 6.97ZM11 13C8.23897 13 5.99997 10.762 5.99997 8C5.99997 5.239 8.23897 3 11 3C13.762 3 16 5.239 16 8C16 10.762 13.762 13 11 13Z" fill="#78C009"/>
</svg>
