<svg width="16" height="16" viewBox="0 0 16 16" fill="none" xmlns="http://www.w3.org/2000/svg">
<path d="M7.97344 14.618H1.99334C1.62656 14.618 1.32891 14.3203 1.32891 13.9535V1.99338C1.32891 1.62659 1.62659 1.32894 1.99334 1.32894H7.97344C8.34087 1.32894 8.63787 1.03194 8.63787 0.6645C8.63787 0.297062 8.34087 0 7.97344 0H1.99334C0.894344 0 0 0.894375 0 1.99338V13.9535C0 15.0525 0.894344 15.9468 1.99334 15.9468H7.97344C8.34087 15.9468 8.63787 15.6498 8.63787 15.2824C8.63787 14.915 8.34087 14.618 7.97344 14.618Z" fill="#78C009"/>
<path d="M15.802 7.50037L11.7622 3.51365C11.5017 3.25584 11.0804 3.25918 10.8226 3.5203C10.5648 3.78143 10.5675 4.20202 10.8293 4.45984L13.7163 7.30899H5.98011C5.61267 7.30899 5.31567 7.60599 5.31567 7.97343C5.31567 8.34087 5.61267 8.6379 5.98011 8.6379H13.7163L10.8293 11.4871C10.5675 11.7449 10.5655 12.1655 10.8226 12.4266C10.9529 12.5581 11.1243 12.6246 11.2957 12.6246C11.4645 12.6246 11.6333 12.5608 11.7622 12.4332L15.802 8.44649C15.9283 8.32159 16 8.15146 16 7.9734C16 7.7954 15.9289 7.62596 15.802 7.50037Z" fill="#78C009"/>
</svg>
