<svg width="18" height="14" viewBox="0 0 18 14" fill="none" xmlns="http://www.w3.org/2000/svg">
<path d="M2.65219 2.90826C1.63278 3.78822 0.794195 4.7939 0.213572 5.76366C-0.0800572 6.25323 -0.0709331 6.85367 0.236797 7.33464C1.92143 9.97299 5.25504 12.6785 8.90467 12.7761H8.95195H9.04568H9.13941H9.18669C10.3089 12.7456 11.3756 12.4762 12.3627 12.0484L14.2746 13.8481C14.4646 14.0277 14.7565 14.0527 14.9208 13.8981L15.5005 13.3507C15.6714 13.1907 15.6399 12.926 15.4475 12.7441L2.06991 0.152011C1.87913 -0.027574 1.58799 -0.0525598 1.42459 0.101259L0.843963 0.647823C0.673094 0.808669 0.703784 1.07414 0.897049 1.25685L2.65219 2.90826ZM11.0862 10.8475C10.4516 11.0661 9.798 11.1965 9.13941 11.2145H9.04568H8.95278C6.05381 11.1364 3.15484 8.87205 1.65849 6.52963C2.19184 5.63951 2.94001 4.76111 3.82256 4.00997L5.79751 5.86907C5.74857 6.08223 5.72286 6.3032 5.72286 6.52963C5.72286 8.25443 7.20842 9.65285 9.0407 9.65285C9.28208 9.65285 9.51598 9.62865 9.74326 9.58258L11.0862 10.8475ZM5.41264 1.1124C6.47684 0.624399 7.62481 0.3152 8.81094 0.283967C8.8267 0.283187 8.84246 0.283187 8.85822 0.283187H8.95195H9.04568C9.06144 0.283187 9.0772 0.283187 9.09296 0.283967C12.7434 0.381568 16.077 3.08706 17.7625 5.7254C18.0785 6.22043 18.0785 6.83961 17.7625 7.33542C17.1346 8.31768 16.2462 9.37098 15.1596 10.2876L13.981 9.17891C14.9274 8.39966 15.7386 7.4705 16.34 6.52963C14.8444 4.18721 11.9446 1.92288 9.04651 1.8448H8.95361H8.85988C8.12166 1.86432 7.38344 2.02594 6.6701 2.29532L5.41264 1.1124ZM12.196 7.49783C12.3021 7.19254 12.3585 6.86694 12.3585 6.52963C12.3585 4.80483 10.8738 3.40641 9.0407 3.40641C8.68155 3.40641 8.33649 3.46028 8.01217 3.55945L12.196 7.49783Z" fill="#DADDE2"/>
</svg>
